<?xml version="1.0" encoding="UTF-8" standalone="no"?>
<!-- Generator: Adobe Illustrator 16.0.0, SVG Export Plug-In . SVG Version: 6.00 Build 0)  -->

<svg
   version="1.1"
   id="Layer_1"
   x="0px"
   y="0px"
   width="133.7695"
   height="119.47929"
   viewBox="0 0 133.7695 119.47929"
   enable-background="new 0 0 841.89 595.276"
   xml:space="preserve"
   sodipodi:docname="Demodam_logo.svg"
   inkscape:version="1.1 (c4e8f9ed74, 2021-05-24)"
   xmlns:inkscape="http://www.inkscape.org/namespaces/inkscape"
   xmlns:sodipodi="http://sodipodi.sourceforge.net/DTD/sodipodi-0.dtd"
   xmlns="http://www.w3.org/2000/svg"
   xmlns:svg="http://www.w3.org/2000/svg"><defs
   id="defs67" /><sodipodi:namedview
   id="namedview65"
   pagecolor="#ffffff"
   bordercolor="#666666"
   borderopacity="1.0"
   inkscape:pageshadow="2"
   inkscape:pageopacity="0.0"
   inkscape:pagecheckerboard="0"
   showgrid="false"
   inkscape:zoom="1.2212822"
   inkscape:cx="14.329202"
   inkscape:cy="97.847981"
   inkscape:window-width="1920"
   inkscape:window-height="1018"
   inkscape:window-x="0"
   inkscape:window-y="0"
   inkscape:window-maximized="1"
   inkscape:current-layer="Layer_1" />

<g
   id="g62"
   transform="translate(-225.389,-199.71321)">
	<path
   fill="#f29492"
   d="m 287.415,216.177 c 3.136,-4.721 6.744,-4.11 10.038,-1.922 l 3.99,2.651 -7.85,11.818 -3.786,-2.515 c -3.244,-2.155 -5.618,-5.176 -2.392,-10.032"
   id="path18" />
	<path
   fill="#d0d0d0"
   d="m 284.607,258.544 c 0,4.219 -3.42,7.639 -7.639,7.639 -4.218,0 -7.638,-3.42 -7.638,-7.639 0,-4.218 3.42,-7.638 7.638,-7.638 4.22,0 7.639,3.42 7.639,7.638"
   id="path20" />
	<polygon
   fill="#fde22e"
   points="250.11,281.199 256.825,292.829 270.255,292.829 276.969,281.199 270.255,269.569 256.825,269.569 "
   id="polygon22" />
	<polygon
   fill="#e79f7b"
   points="257.07,259.406 239.362,249.404 239.553,269.74 "
   id="polygon24" />
	<path
   fill="#eebf4b"
   d="m 254.903,213.667 13.34,-10.765 c -2.973,-3.684 -8.369,-4.26 -12.053,-1.288 -3.683,2.973 -4.26,8.369 -1.287,12.053"
   id="path26" />
	<path
   fill="#e7a4b0"
   d="m 242.546,289.199 -7.648,-18.943 c -5.232,2.112 -7.76,8.065 -5.648,13.296 2.112,5.23 8.065,7.759 13.296,5.647"
   id="path28" />
	<path
   fill="#f29492"
   d="m 237.941,251.884 -1.17,-20.395 c -5.632,0.323 -9.935,5.151 -9.613,10.783 0.323,5.632 5.151,9.935 10.783,9.612"
   id="path30" />
	<path
   fill="#7acdf4"
   d="m 259.151,232.392 c -1.159,2.303 -3.964,3.23 -6.267,2.071 -2.302,-1.158 -3.229,-3.964 -2.071,-6.266 1.158,-2.302 3.964,-3.229 6.267,-2.071 2.301,1.158 3.229,3.963 2.071,6.266"
   id="path32" />
	<path
   fill="#86c5b0"
   d="m 244.539,229.432 c -0.495,0 -0.996,-0.112 -1.469,-0.349 -0.782,-0.393 -1.364,-1.068 -1.636,-1.899 -0.277,-0.832 -0.211,-1.72 0.183,-2.502 0.394,-0.781 1.068,-1.363 1.9,-1.637 0.828,-0.276 1.717,-0.21 2.502,0.184 0.782,0.393 1.364,1.068 1.636,1.898 0.275,0.831 0.211,1.72 -0.183,2.501 -0.574,1.144 -1.734,1.804 -2.933,1.804 m 0.008,-3.819 c -0.072,0 -0.133,0.015 -0.173,0.028 -0.078,0.026 -0.226,0.096 -0.313,0.27 -0.089,0.176 -0.058,0.336 -0.032,0.415 0.027,0.08 0.097,0.226 0.272,0.314 0.269,0.138 0.593,0.029 0.727,-0.239 v -0.002 c 0.089,-0.175 0.058,-0.334 0.032,-0.414 -0.027,-0.08 -0.097,-0.226 -0.271,-0.314 -0.088,-0.044 -0.172,-0.058 -0.242,-0.058"
   id="path34" />
	<path
   fill="#86c5b0"
   d="m 266.114,237.064 c 0.674,2.422 -0.744,4.932 -3.166,5.605 -2.422,0.673 -4.932,-0.744 -5.605,-3.166 -0.673,-2.422 0.744,-4.932 3.167,-5.606 2.421,-0.673 4.931,0.745 5.604,3.167"
   id="path36" />
	<path
   fill="#86c5b0"
   d="m 264.336,230.667 c 0.673,2.422 -0.744,4.932 -3.166,5.605 -2.423,0.674 -4.933,-0.744 -5.605,-3.166 -0.674,-2.422 0.744,-4.932 3.166,-5.605 2.421,-0.675 4.931,0.743 5.605,3.166"
   id="path38" />
	<polygon
   fill="#86c5b0"
   points="271.933,217.648 282.19,215.226 274.963,207.554 "
   id="polygon40" />
	<path
   fill="#d3d800"
   d="m 334.374,259.018 c 0,19.589 -15.881,35.47 -35.47,35.47 -19.59,0 -35.47,-15.881 -35.47,-35.47 0,-19.59 15.88,-35.47 35.47,-35.47 19.589,-0.001 35.47,15.879 35.47,35.47"
   id="path42" />
	<path
   fill="#9bc65a"
   d="m 288.374,233.431 c 0,6.299 -5.106,11.405 -11.405,11.405 -6.298,0 -11.405,-5.106 -11.405,-11.405 0,-6.298 5.107,-11.404 11.405,-11.404 6.299,0 11.405,5.106 11.405,11.404"
   id="path44" />
	<path
   fill="#aeb325"
   d="m 299.778,277.067 c 0,6.298 -5.106,11.404 -11.404,11.404 -6.299,0 -11.406,-5.106 -11.406,-11.404 0,-6.299 5.107,-11.405 11.406,-11.405 6.298,0 11.404,5.106 11.404,11.405"
   id="path46" />
	<path
   fill="#86c5b0"
   d="m 245.886,246.271 c 0,3.149 -2.553,5.702 -5.702,5.702 -3.15,0 -5.702,-2.553 -5.702,-5.702 0,-3.149 2.552,-5.703 5.702,-5.703 3.149,0 5.702,2.554 5.702,5.703"
   id="path48" />
	<polygon
   fill="#aeb325"
   points="298.12,287.082 278.628,292.884 293.398,306.864 "
   id="polygon50" />
	<path
   fill="#906286"
   d="M 264.386,312.706 248.894,299.39 c -3.677,4.278 -3.191,10.727 1.088,14.404 4.278,3.676 10.726,3.189 14.404,-1.088"
   id="path52" />
	<polygon
   fill="#906286"
   points="230.55,306.21 235.926,297.148 225.389,297.024 "
   id="polygon54" />
	<path
   fill="#6cbd99"
   d="m 280.321,300.196 c 2.267,2.187 2.332,5.796 0.146,8.063 -2.187,2.267 -5.796,2.332 -8.063,0.146 -2.267,-2.188 -2.332,-5.797 -0.146,-8.063 2.186,-2.266 5.796,-2.333 8.063,-0.146"
   id="path56" />
	<path
   fill="none"
   stroke="#000000"
   stroke-width="29.785"
   stroke-miterlimit="10"
   d="m 300.48,216.728 c 24.183,0 43.786,19.604 43.786,43.786 0,24.182 -19.603,43.786 -43.786,43.786"
   id="path58" />
	<path
   fill="#ffffff"
   d="m 311.65,261.306 c 0,8.303 -6.731,15.034 -15.035,15.034 -8.303,0 -15.034,-6.731 -15.034,-15.034 0,-8.303 6.731,-15.034 15.034,-15.034 8.304,-0.001 15.035,6.73 15.035,15.034"
   id="path60" />
</g>
</svg>
