<?xml version="1.0" encoding="utf-8"?>
<!-- Generator: Adobe Illustrator 16.0.0, SVG Export Plug-In . SVG Version: 6.00 Build 0)  -->
<!DOCTYPE svg PUBLIC "-//W3C//DTD SVG 1.1//EN" "http://www.w3.org/Graphics/SVG/1.1/DTD/svg11.dtd">
<svg version="1.1" id="Layer_1" xmlns="http://www.w3.org/2000/svg" xmlns:xlink="http://www.w3.org/1999/xlink" x="0px" y="0px"
	 width="841.89px" height="595.276px" viewBox="0 0 841.89 595.276" enable-background="new 0 0 841.89 595.276"
	 xml:space="preserve">
<g>
	<path d="M413.018,275.274c-0.355,1.854-1.075,3.58-2.16,5.177c-1.085,1.597-2.624,2.919-4.615,3.964
		c-1.992,1.045-4.625,1.568-7.898,1.568h-11.241c-1.145,0-2.101-0.394-2.87-1.183c-0.769-0.789-1.154-1.755-1.154-2.899v-34.966
		c0-1.144,0.385-2.109,1.154-2.899c0.769-0.789,1.725-1.183,2.87-1.183h11.241c3.273,0,5.906,0.532,7.898,1.597
		c1.991,1.065,3.529,2.396,4.615,3.994c1.084,1.598,1.805,3.333,2.16,5.207c0.355,1.874,0.532,3.619,0.532,5.236v11.123
		C413.55,271.666,413.373,273.421,413.018,275.274z M405.444,259.004c0-1.262-0.109-2.405-0.325-3.432
		c-0.217-1.025-0.622-1.902-1.213-2.633c-0.592-0.729-1.381-1.292-2.367-1.686c-0.986-0.394-2.248-0.592-3.787-0.592h-6.567v27.689
		h6.567c1.539,0,2.8-0.197,3.787-0.592c0.985-0.394,1.775-0.956,2.367-1.686c0.591-0.729,0.996-1.606,1.213-2.633
		c0.216-1.025,0.325-2.168,0.325-3.432V259.004z"/>
	<path d="M444.404,272.257c-0.532,0.553-1.174,0.828-1.923,0.828h-14.141v1.124c0,1.775,0.404,3.156,1.213,4.142
		c0.809,0.986,2.041,1.479,3.698,1.479c1.459,0,2.672-0.108,3.639-0.325c0.966-0.216,1.961-0.542,2.987-0.976
		c0.789-0.315,1.568-0.275,2.337,0.118c0.77,0.395,1.272,1.026,1.509,1.893c0.275,0.908,0.256,1.707-0.059,2.396
		c-0.316,0.69-0.849,1.193-1.598,1.509c-1.657,0.75-3.265,1.252-4.822,1.508c-1.559,0.256-3.047,0.385-4.467,0.385
		c-2.288,0-4.221-0.355-5.798-1.065c-1.578-0.71-2.86-1.657-3.846-2.84c-0.986-1.184-1.696-2.553-2.13-4.112
		c-0.435-1.558-0.651-3.204-0.651-4.94v-5.502c0-1.735,0.246-3.392,0.74-4.97c0.492-1.577,1.251-2.958,2.277-4.142
		c1.025-1.183,2.316-2.13,3.875-2.84c1.558-0.71,3.422-1.065,5.592-1.065c2.248,0,4.16,0.346,5.738,1.036
		c1.577,0.69,2.85,1.627,3.816,2.81c0.966,1.183,1.676,2.554,2.13,4.112c0.453,1.559,0.681,3.186,0.681,4.881v2.544
		C445.203,271.035,444.937,271.705,444.404,272.257z M436.446,262.436c-0.71-0.907-1.854-1.361-3.432-1.361s-2.751,0.454-3.52,1.361
		c-0.77,0.908-1.154,2.209-1.154,3.905v0.769h9.171v-0.769C437.512,264.646,437.156,263.344,436.446,262.436z"/>
	<path d="M493.155,285.185c-0.77,0.769-1.706,1.154-2.811,1.154c-1.145,0-2.1-0.385-2.869-1.154s-1.153-1.706-1.153-2.81v-15.383
		c0-0.592-0.051-1.173-0.148-1.746c-0.099-0.571-0.296-1.065-0.592-1.479s-0.71-0.749-1.242-1.006
		c-0.532-0.256-1.233-0.384-2.101-0.384c-1.104,0-2.062,0.227-2.869,0.68c-0.809,0.454-1.47,1.035-1.982,1.745
		c0,0.198,0.01,0.395,0.03,0.592c0.019,0.198,0.029,0.395,0.029,0.592v16.389c0,1.104-0.395,2.041-1.184,2.81
		s-1.736,1.154-2.84,1.154c-1.104,0-2.041-0.385-2.811-1.154c-0.769-0.769-1.153-1.706-1.153-2.81v-15.383
		c0-0.592-0.06-1.173-0.178-1.746c-0.118-0.571-0.325-1.065-0.621-1.479s-0.71-0.749-1.242-1.006
		c-0.532-0.256-1.233-0.384-2.101-0.384c-1.026,0-1.943,0.207-2.751,0.621c-0.809,0.414-1.489,0.976-2.041,1.686v17.69
		c0,1.104-0.385,2.041-1.154,2.81c-0.769,0.769-1.706,1.154-2.81,1.154c-1.145,0-2.101-0.385-2.87-1.154
		c-0.769-0.769-1.153-1.706-1.153-2.81v-18.164c0-1.025-0.178-1.735-0.532-2.13c-0.355-0.394-0.77-0.808-1.243-1.243
		c-0.316-0.237-0.572-0.542-0.769-0.917c-0.198-0.375-0.296-0.837-0.296-1.39c0-1.144,0.374-1.972,1.124-2.485
		c0.749-0.512,1.695-0.769,2.84-0.769c1.34,0,2.583,0.414,3.728,1.243c0.592,0.435,1.044,0.908,1.36,1.42
		c1.025-0.947,2.268-1.695,3.728-2.249c1.459-0.552,3.136-0.828,5.029-0.828c1.972,0,3.588,0.296,4.852,0.888
		c1.262,0.591,2.287,1.42,3.076,2.485c1.025-1.065,2.277-1.894,3.757-2.485c1.479-0.592,3.225-0.888,5.236-0.888
		c1.854,0,3.411,0.266,4.674,0.799c1.262,0.532,2.278,1.282,3.047,2.248c0.77,0.967,1.321,2.14,1.656,3.521
		c0.335,1.381,0.503,2.899,0.503,4.556v16.389C494.309,283.479,493.925,284.416,493.155,285.185z"/>
	<path d="M525.933,278.617c-0.494,1.519-1.263,2.85-2.308,3.994c-1.046,1.145-2.366,2.052-3.964,2.722
		c-1.598,0.67-3.501,1.006-5.71,1.006s-4.111-0.335-5.709-1.006c-1.598-0.67-2.919-1.577-3.964-2.722
		c-1.046-1.144-1.814-2.475-2.308-3.994c-0.493-1.518-0.739-3.145-0.739-4.881v-6.271c0-1.695,0.246-3.313,0.739-4.852
		c0.493-1.538,1.262-2.878,2.308-4.023c1.045-1.144,2.366-2.051,3.964-2.722c1.598-0.67,3.5-1.006,5.709-1.006
		s4.112,0.335,5.71,1.006c1.598,0.671,2.918,1.578,3.964,2.722c1.045,1.145,1.813,2.485,2.308,4.023
		c0.492,1.539,0.739,3.156,0.739,4.852v6.271C526.672,275.473,526.425,277.1,525.933,278.617z M518.685,267.524
		c0-1.775-0.375-3.125-1.124-4.053c-0.75-0.926-1.952-1.39-3.609-1.39c-1.617,0-2.81,0.464-3.579,1.39
		c-0.769,0.927-1.153,2.278-1.153,4.053v6.212c0,1.775,0.385,3.126,1.153,4.053c0.77,0.927,1.962,1.391,3.579,1.391
		c1.657,0,2.859-0.463,3.609-1.391c0.749-0.926,1.124-2.278,1.124-4.053V267.524z"/>
	<path d="M559.33,285.569c-0.749,0.512-1.696,0.769-2.84,0.769c-0.631,0-1.271-0.109-1.923-0.325
		c-0.65-0.216-1.252-0.542-1.805-0.977c-0.354-0.275-0.729-0.63-1.124-1.065c-0.986,0.75-2.15,1.332-3.49,1.746
		c-1.342,0.414-2.663,0.621-3.964,0.621c-3.905,0-6.785-1.074-8.639-3.225c-1.854-2.149-2.78-5.295-2.78-9.437v-4.792
		c0-2.168,0.187-4.121,0.562-5.857c0.375-1.735,0.985-3.204,1.834-4.408c0.849-1.203,1.962-2.13,3.344-2.781
		c1.38-0.651,3.076-0.976,5.088-0.976c1.144,0,2.268,0.168,3.372,0.503c1.104,0.335,2.071,0.779,2.899,1.331l-0.06-9.584
		c0-1.104,0.394-2.041,1.184-2.811c0.788-0.769,1.735-1.153,2.84-1.153c1.104,0,2.051,0.384,2.84,1.153
		c0.788,0.77,1.184,1.707,1.184,2.811v30.292c0,1.026,0.138,1.736,0.414,2.13c0.275,0.395,0.65,0.789,1.124,1.183
		c0.315,0.237,0.571,0.553,0.769,0.947c0.197,0.395,0.296,0.868,0.296,1.42C560.454,284.229,560.079,285.057,559.33,285.569z
		 M549.864,263.442c-0.632-0.552-1.342-0.996-2.13-1.332c-0.79-0.334-1.538-0.503-2.249-0.503c-1.735,0-2.958,0.494-3.668,1.479
		c-0.71,0.986-1.064,2.406-1.064,4.26v6.922c0,1.775,0.364,3.106,1.095,3.993c0.729,0.888,1.961,1.332,3.697,1.332
		c1.499,0,2.938-0.533,4.319-1.598V263.442z"/>
	<path d="M590.954,285.569c-0.73,0.512-1.707,0.769-2.929,0.769c-0.79,0-1.5-0.128-2.13-0.385c-0.632-0.256-1.145-0.542-1.539-0.858
		c-0.395-0.275-0.789-0.689-1.183-1.242c-1.145,0.986-2.455,1.647-3.935,1.982s-2.869,0.503-4.171,0.503
		c-3.59,0-6.263-0.837-8.018-2.515c-1.755-1.676-2.633-3.914-2.633-6.715v-0.415c0-2.8,0.996-4.999,2.988-6.597
		c1.991-1.597,4.9-2.396,8.727-2.396h5.266v-1.124c0-1.735-0.296-3.066-0.888-3.994c-0.591-0.926-1.795-1.391-3.608-1.391
		c-1.263,0-2.299,0.128-3.106,0.385c-0.809,0.257-1.549,0.562-2.219,0.917c-0.986,0.513-1.884,0.621-2.691,0.325
		c-0.81-0.296-1.42-0.769-1.835-1.42c-0.414-0.651-0.562-1.39-0.443-2.219c0.118-0.828,0.631-1.538,1.538-2.13
		c1.262-0.828,2.751-1.399,4.467-1.716c1.716-0.315,3.362-0.473,4.94-0.473c2.13,0,3.944,0.247,5.443,0.74
		c1.498,0.494,2.722,1.252,3.668,2.278c0.947,1.026,1.637,2.337,2.071,3.934c0.434,1.598,0.65,3.501,0.65,5.709v9.88
		c0,1.026,0.148,1.736,0.444,2.13c0.295,0.395,0.659,0.789,1.094,1.183c0.315,0.276,0.582,0.602,0.799,0.976
		c0.217,0.375,0.325,0.838,0.325,1.391C592.048,284.229,591.684,285.057,590.954,285.569z M581.398,273.44h-4.318
		c-1.775,0-3.009,0.316-3.698,0.947c-0.69,0.631-1.035,1.44-1.035,2.426v0.414c0,1.104,0.354,1.953,1.064,2.544
		c0.71,0.592,1.834,0.888,3.373,0.888c1.38,0,2.494-0.375,3.343-1.124c0.848-0.749,1.271-1.913,1.271-3.491V273.44z"/>
	<path d="M639.23,285.185c-0.77,0.769-1.706,1.154-2.811,1.154c-1.145,0-2.1-0.385-2.869-1.154s-1.153-1.706-1.153-2.81v-15.383
		c0-0.592-0.051-1.173-0.148-1.746c-0.099-0.571-0.296-1.065-0.592-1.479s-0.71-0.749-1.242-1.006
		c-0.532-0.256-1.233-0.384-2.101-0.384c-1.104,0-2.062,0.227-2.869,0.68c-0.809,0.454-1.47,1.035-1.982,1.745
		c0,0.198,0.01,0.395,0.03,0.592c0.019,0.198,0.029,0.395,0.029,0.592v16.389c0,1.104-0.395,2.041-1.184,2.81
		s-1.736,1.154-2.84,1.154c-1.104,0-2.041-0.385-2.811-1.154c-0.769-0.769-1.153-1.706-1.153-2.81v-15.383
		c0-0.592-0.06-1.173-0.178-1.746c-0.118-0.571-0.325-1.065-0.621-1.479s-0.71-0.749-1.242-1.006
		c-0.532-0.256-1.233-0.384-2.101-0.384c-1.026,0-1.943,0.207-2.751,0.621c-0.809,0.414-1.489,0.976-2.041,1.686v17.69
		c0,1.104-0.385,2.041-1.154,2.81c-0.769,0.769-1.706,1.154-2.81,1.154c-1.145,0-2.101-0.385-2.87-1.154
		c-0.769-0.769-1.153-1.706-1.153-2.81v-18.164c0-1.025-0.178-1.735-0.532-2.13c-0.355-0.394-0.77-0.808-1.243-1.243
		c-0.316-0.237-0.572-0.542-0.769-0.917c-0.198-0.375-0.296-0.837-0.296-1.39c0-1.144,0.374-1.972,1.124-2.485
		c0.749-0.512,1.695-0.769,2.84-0.769c1.34,0,2.583,0.414,3.728,1.243c0.592,0.435,1.044,0.908,1.36,1.42
		c1.025-0.947,2.268-1.695,3.728-2.249c1.459-0.552,3.136-0.828,5.029-0.828c1.972,0,3.588,0.296,4.852,0.888
		c1.262,0.591,2.287,1.42,3.076,2.485c1.025-1.065,2.277-1.894,3.757-2.485c1.479-0.592,3.225-0.888,5.236-0.888
		c1.854,0,3.411,0.266,4.674,0.799c1.262,0.532,2.278,1.282,3.047,2.248c0.77,0.967,1.321,2.14,1.656,3.521
		c0.335,1.381,0.503,2.899,0.503,4.556v16.389C640.384,283.479,640,284.416,639.23,285.185z"/>
</g>
<g>
	<path fill="#F29492" d="M287.415,216.177c3.136-4.721,6.744-4.11,10.038-1.922l3.99,2.651l-7.85,11.818l-3.786-2.515
		C286.563,224.054,284.189,221.033,287.415,216.177"/>
	<path fill="#D0D0D0" d="M284.607,258.544c0,4.219-3.42,7.639-7.639,7.639c-4.218,0-7.638-3.42-7.638-7.639
		c0-4.218,3.42-7.638,7.638-7.638C281.188,250.906,284.607,254.326,284.607,258.544"/>
	<polygon fill="#FDE22E" points="270.255,269.569 256.825,269.569 250.11,281.199 256.825,292.829 270.255,292.829 276.969,281.199 
			"/>
	<polygon fill="#E79F7B" points="239.362,249.404 239.553,269.74 257.07,259.406 	"/>
	<path fill="#EEBF4B" d="M254.903,213.667l13.34-10.765c-2.973-3.684-8.369-4.26-12.053-1.288
		C252.507,204.587,251.93,209.983,254.903,213.667"/>
	<path fill="#E7A4B0" d="M242.546,289.199l-7.648-18.943c-5.232,2.112-7.76,8.065-5.648,13.296
		C231.362,288.782,237.315,291.311,242.546,289.199"/>
	<path fill="#F29492" d="M237.941,251.884l-1.17-20.395c-5.632,0.323-9.935,5.151-9.613,10.783
		C227.481,247.904,232.309,252.207,237.941,251.884"/>
	<path fill="#7ACDF4" d="M259.151,232.392c-1.159,2.303-3.964,3.23-6.267,2.071c-2.302-1.158-3.229-3.964-2.071-6.266
		c1.158-2.302,3.964-3.229,6.267-2.071C259.381,227.284,260.309,230.089,259.151,232.392"/>
	<path fill="#86C5B0" d="M244.539,229.432c-0.495,0-0.996-0.112-1.469-0.349c-0.782-0.393-1.364-1.068-1.636-1.899
		c-0.277-0.832-0.211-1.72,0.183-2.502c0.394-0.781,1.068-1.363,1.9-1.637c0.828-0.276,1.717-0.21,2.502,0.184
		c0.782,0.393,1.364,1.068,1.636,1.898c0.275,0.831,0.211,1.72-0.183,2.501C246.898,228.772,245.738,229.432,244.539,229.432
		 M244.547,225.613c-0.072,0-0.133,0.015-0.173,0.028c-0.078,0.026-0.226,0.096-0.313,0.27c-0.089,0.176-0.058,0.336-0.032,0.415
		c0.027,0.08,0.097,0.226,0.272,0.314c0.269,0.138,0.593,0.029,0.727-0.239v-0.002c0.089-0.175,0.058-0.334,0.032-0.414
		c-0.027-0.08-0.097-0.226-0.271-0.314C244.701,225.627,244.617,225.613,244.547,225.613"/>
	<path fill="#86C5B0" d="M266.114,237.064c0.674,2.422-0.744,4.932-3.166,5.605c-2.422,0.673-4.932-0.744-5.605-3.166
		c-0.673-2.422,0.744-4.932,3.167-5.606C262.931,233.224,265.441,234.642,266.114,237.064"/>
	<path fill="#86C5B0" d="M264.336,230.667c0.673,2.422-0.744,4.932-3.166,5.605c-2.423,0.674-4.933-0.744-5.605-3.166
		c-0.674-2.422,0.744-4.932,3.166-5.605C261.152,226.826,263.662,228.244,264.336,230.667"/>
	<polygon fill="#86C5B0" points="282.19,215.226 274.963,207.554 271.933,217.648 	"/>
	<path fill="#D3D800" d="M334.374,259.018c0,19.589-15.881,35.47-35.47,35.47c-19.59,0-35.47-15.881-35.47-35.47
		c0-19.59,15.88-35.47,35.47-35.47C318.493,223.547,334.374,239.427,334.374,259.018"/>
	<path fill="#9BC65A" d="M288.374,233.431c0,6.299-5.106,11.405-11.405,11.405c-6.298,0-11.405-5.106-11.405-11.405
		c0-6.298,5.107-11.404,11.405-11.404C283.268,222.027,288.374,227.133,288.374,233.431"/>
	<path fill="#AEB325" d="M299.778,277.067c0,6.298-5.106,11.404-11.404,11.404c-6.299,0-11.406-5.106-11.406-11.404
		c0-6.299,5.107-11.405,11.406-11.405C294.672,265.662,299.778,270.768,299.778,277.067"/>
	<path fill="#86C5B0" d="M245.886,246.271c0,3.149-2.553,5.702-5.702,5.702c-3.15,0-5.702-2.553-5.702-5.702
		c0-3.149,2.552-5.703,5.702-5.703C243.333,240.568,245.886,243.122,245.886,246.271"/>
	<polygon fill="#AEB325" points="278.628,292.884 293.398,306.864 298.12,287.082 	"/>
	<path fill="#906286" d="M264.386,312.706l-15.492-13.316c-3.677,4.278-3.191,10.727,1.088,14.404
		C254.26,317.47,260.708,316.983,264.386,312.706"/>
	<polygon fill="#906286" points="235.926,297.148 225.389,297.024 230.55,306.21 	"/>
	<path fill="#6CBD99" d="M280.321,300.196c2.267,2.187,2.332,5.796,0.146,8.063c-2.187,2.267-5.796,2.332-8.063,0.146
		c-2.267-2.188-2.332-5.797-0.146-8.063S278.054,298.009,280.321,300.196"/>
	<path fill="none" stroke="#000000" stroke-width="29.785" stroke-miterlimit="10" d="M300.48,216.728
		c24.183,0,43.786,19.604,43.786,43.786s-19.603,43.786-43.786,43.786"/>
	<path fill="#FFFFFF" d="M311.65,261.306c0,8.303-6.731,15.034-15.035,15.034c-8.303,0-15.034-6.731-15.034-15.034
		c0-8.303,6.731-15.034,15.034-15.034C304.919,246.271,311.65,253.002,311.65,261.306"/>
</g>
</svg>
